HIERARCHY
ROOT Hips
{
	OFFSET 0.00000 0.00000 0.00000
	CHANNELS 6 Xposition Yposition Zposition Yrotation Zrotation Xrotation 
	JOINT Lumbar
	{
		OFFSET 0 0 0
		CHANNELS 3 Zrotation Xrotation Yrotation
		JOINT Neck
		{
			OFFSET 0.00 0.2701 0.00
			CHANNELS 3 Zrotation Xrotation Yrotation
			End Site
			{
				OFFSET 0.00 0.1379 0.00
			}
		}
		JOINT RightShoulder
		{
			OFFSET 0.0119 0.2289 0.1181
			CHANNELS 3 Zrotation Xrotation Yrotation
			JOINT RightElbow
			{
				OFFSET 0.00 -0.1475 0.00
				CHANNELS 2 Zrotation Yrotation
				JOINT RightWrist
				{
					OFFSET 0.00 -0.1605 0.00
					CHANNELS 2 Zrotation Xrotation
					End Site
					{
						OFFSET 0.0040 -0.1068 0.0006
					}
				}
			}
		}
		JOINT LeftShoulder
		{
			OFFSET 0.0119 0.2289 -0.1181
			CHANNELS 3 Zrotation Xrotation Yrotation
			JOINT LeftElbow
			{
				OFFSET 0.00 -0.1475 0.00
				CHANNELS 2 Zrotation Yrotation
				JOINT LeftWrist
				{
					OFFSET 0.00 -0.1605 0.00
					CHANNELS 2 Zrotation Xrotation
					End Site
					{
						OFFSET 0.0040 -0.1068 -0.0006
					}
				}
			}
		}
	}
	JOINT RightHip
	{
		OFFSET 0.0316 -0.0424 0.0458
		CHANNELS 3 Zrotation Xrotation Yrotation
		JOINT RightKnee
		{
			OFFSET 0.00 -0.2438 0.00
			CHANNELS 1 Zrotation
			JOINT RightAnkle
			{
				OFFSET 0.00 -0.2449 0.00
				CHANNELS 3 Zrotation Xrotation Yrotation
				End Site
				{
					OFFSET 0.1237 -0.0542 0.0051
				}
			}
		}
	}
	JOINT LeftHip
	{
		OFFSET 0.0316 -0.0424 -0.0458
		CHANNELS 3 Zrotation Xrotation Yrotation
		JOINT LeftKnee
		{
			OFFSET 0.00 -0.2438 0.00
			CHANNELS 1 Zrotation
			JOINT LeftAnkle
			{
				OFFSET 0.00 -0.2449 0.00
				CHANNELS 3 Zrotation Xrotation Yrotation
				End Site
				{
					OFFSET 0.1237 -0.0542 -0.0051
				}
			}
		}
	}
}
MOTION
Frames: 30
Frame Time: 0.02
0.30706 -0.19218 -0.01907 -175.52087 13.25201 -0.57632 10.41753 1.92506 -0.16045 -34.05788 0.89969 -2.11994 -42.97672 -22.28215 7.30532 68.75986 96.14862 7.70442 1.74745 -53.40118 7.3401 12.7182 76.83562 -88.18202 12.9306 1.37113 77.30038 -6.3125 -12.62397 -118.57245 -14.35336 -3.27833 -4.23314 64.59373 3.52855 1.40034 -81.57119 -11.42396 2.72068 3.79466
0.30694 -0.19209 -0.01887 -175.37816 13.03221 -0.50396 10.40916 1.95266 0.11602 -34.37374 -0.04146 -2.11994 -42.96685 -22.37005 7.48471 68.69742 94.28386 7.34989 1.22029 -53.3516 7.56222 12.03688 77.03211 -87.93668 12.75427 1.37957 77.31699 -6.38801 -12.28236 -118.28969 -14.49735 -3.28358 -4.2438 64.97901 3.37188 1.19856 -83.10203 -11.25948 2.77972 3.8161
0.30679 -0.19199 -0.01863 -175.2018 12.82523 -0.43691 10.39938 1.99489 0.43258 -34.67573 -0.93017 -2.11994 -43.03352 -22.49252 7.66033 68.66961 91.91016 6.96153 0.55668 -53.28191 7.72322 11.33813 77.18428 -87.70993 12.57891 1.37673 77.17732 -6.44578 -11.84231 -117.81652 -14.61931 -3.29252 -4.25523 65.3334 3.22709 1.03534 -84.51521 -11.11121 2.82798 3.83309
0.30665 -0.19189 -0.01841 -175.04014 12.61152 -0.36773 10.39216 2.03095 0.73164 -34.98131 -1.83744 -2.11994 -43.06439 -22.5965 7.83335 68.62151 89.83123 6.58812 -0.02668 -53.21659 7.90248 10.66056 77.34269 -87.48182 12.40096 1.37955 77.10031 -6.51404 -11.44713 -117.41554 -14.74451 -3.29922 -4.26565 65.70503 3.08535 0.86582 -85.97826 -10.9572 2.87949 3.85134
0.30652 -0.1918 -0.01818 -174.88006 12.40183 -0.29709 10.37749 2.06502 1.02923 -35.29979 -2.76827 -2.11994 -43.09997 -22.7129 8.0264 68.59121 87.48234 6.2138 -0.68916 -53.17209 8.12203 9.92381 77.56095 -87.23789 12.23419 1.37733 77.05447 -6.57382 -11.04991 -117.06912 -14.89836 -3.30829 -4.27886 66.06231 2.91104 0.65433 -87.45336 -10.79588 2.93716 3.87236
0.30635 -0.1917 -0.01796 -174.70901 12.1865 -0.23094 10.37732 2.10675 1.3383 -35.58604 -3.63726 -2.11994 -43.14268 -22.81099 8.17583 68.53259 85.57514 5.83508 -1.21738 -53.0787 8.24377 9.30709 77.64384 -87.02581 12.04365 1.38393 76.90948 -6.64571 -10.63437 -116.56694 -14.98728 -3.3133 -4.28642 66.44305 2.8051 0.53614 -88.87573 -10.65433 2.97961 3.88667
0.30607 -0.19159 -0.0178 -174.51617 11.95503 -0.17475 10.42303 2.16517 1.67569 -35.80509 -4.34549 -2.11994 -43.1993 -22.85517 8.20972 68.38727 85.01823 5.44421 -1.35588 -52.86079 8.10248 9.03003 77.36037 -86.89841 11.78618 1.41847 76.51346 -6.76356 -10.18943 -115.67201 -14.90267 -3.30634 -4.27825 66.88886 2.89897 0.68156 -90.19139 -10.55681 2.98451 3.88415
0.30574 -0.19149 -0.01765 -174.3135 11.71688 -0.12303 10.48233 2.23082 2.02198 -35.98867 -4.99331 -2.11994 -43.25785 -22.87901 8.19914 68.21227 84.92244 5.05205 -1.35265 -52.59301 7.86647 8.87401 76.94252 -86.80024 11.50483 1.4625 76.02687 -6.89262 -9.7302 -114.62994 -14.75362 -3.29513 -4.26435 67.36064 3.0585 0.91647 -91.45604 -10.47978 2.97428 3.875
0.30543 -0.19138 -0.01751 -174.1153 11.48022 -0.07014 10.53181 2.2939 2.35972 -36.17661 -5.67078 -2.11994 -43.30757 -22.9085 8.20576 68.05137 84.61209 4.66598 -1.40359 -52.3448 7.67854 8.66065 76.58831 -86.68583 11.23453 1.50207 75.59154 -7.01089 -9.27955 -113.66129 -14.63357 -3.28578 -4.253 67.82543 3.17847 1.09926 -92.73895 -10.39779 2.96986 3.86857
0.30513 -0.19127 -0.01732 -173.91601 11.25089 -0.01416 10.59668 2.355 2.71759 -36.4142 -6.33836 -2.11994 -43.3948 -22.95337 8.2239 67.88993 84.30571 4.25483 -1.49881 -52.11021 7.46616 8.457 76.22213 -86.58468 10.96264 1.54192 75.10573 -7.15222 -8.81649 -112.65588 -14.5131 -3.2769 -4.24187 68.26919 3.33951 1.33031 -94.04147 -10.29829 2.96944 3.86317
0.3048 -0.19118 -0.01723 -173.71693 11.00406 0.03484 10.63268 2.42112 3.0355 -36.5395 -7.01137 -2.11994 -43.40174 -22.96217 8.20889 67.72101 84.10638 3.89685 -1.47103 -51.83408 7.28434 8.26141 75.84906 -86.4627 10.68941 1.58345 74.70854 -7.2489 -8.37733 -111.69754 -14.37959 -3.26594 -4.22894 68.76288 3.43097 1.48346 -95.28882 -10.23954 2.95738 3.85414
0.30437 -0.19113 -0.01737 -173.5227 10.71468 0.06178 10.58602 2.50459 3.23742 -36.36874 -7.7269 -2.11994 -43.19974 -22.86554 8.10208 67.54794 84.10016 3.67979 -1.09664 -51.46881 7.19873 8.06504 75.49395 -86.2745 10.4094 1.62873 74.5535 -7.21515 -8.0076 -110.88099 -14.21578 -3.25054 -4.21208 69.39183 3.30962 1.38295 -96.42835 -10.2913 2.91586 3.83635
0.30391 -0.1911 -0.01759 -173.32904 10.40713 0.08253 10.50965 2.59183 3.39925 -36.08534 -8.44764 -2.11994 -42.91375 -22.73528 7.96583 67.36636 84.18665 3.51779 -0.60982 -51.06096 7.14949 7.8716 75.13593 -86.06469 10.13058 1.67518 74.49585 -7.13693 -7.66335 -110.12239 -14.04272 -3.23311 -4.19365 70.06936 3.11687 1.20366 -97.50831 -10.38268 2.86339 3.8152
0.30347 -0.19106 -0.01778 -173.1338 10.10501 0.1088 10.44681 2.67378 3.58155 -35.84996 -9.15815 -2.11994 -42.65744 -22.62711 7.85004 67.18262 84.22618 3.3346 -0.20193 -50.66404 7.09142 7.67244 74.77688 -85.86539 9.85701 1.72019 74.41107 -7.08208 -7.30744 -109.3541 -13.88106 -3.21643 -4.17624 70.72269 2.95971 1.07142 -98.59567 -10.45387 2.81671 3.79584
0.30301 -0.19102 -0.01797 -172.94292 9.81437 0.1238 10.38482 2.771 3.75479 -35.62637 -9.90057 -2.11994 -42.43811 -22.48893 7.70166 67.02384 84.30084 3.13446 0.3257 -50.30126 6.99778 7.4955 74.42337 -85.66338 9.55797 1.76926 74.25212 -7.01442 -6.94956 -108.51022 -13.68818 -3.20039 -4.15746 71.3869 2.7913 0.89569 -99.76596 -10.53507 2.76616 3.77515
0.30259 -0.19098 -0.01816 -172.74426 9.49591 0.16045 10.31322 2.83737 3.93712 -35.35238 -10.57748 -2.11994 -42.12049 -22.40626 7.61621 66.81078 84.31969 2.98362 0.63212 -49.85747 6.98776 7.27207 74.05896 -85.46253 9.31283 1.81015 74.27021 -6.96255 -6.60422 -107.83955 -13.55718 -3.18252 -4.14109 72.03833 2.62888 0.78959 -100.74786 -10.60447 2.72116 3.75648
0.30227 -0.1909 -0.01832 -172.51517 9.10227 0.26192 10.22765 2.81625 4.15503 -34.96319 -11.0819 -2.11994 -41.56334 -22.47883 7.69936 66.45602 84.14912 2.94721 0.27082 -49.20478 7.20327 6.91311 73.66973 -85.26089 9.21418 1.82718 74.76934 -6.96671 -6.26879 -107.63388 -13.61527 -3.16085 -4.13299 72.65359 2.49697 0.90404 -101.24365 -10.63242 2.69527 3.7448
0.30199 -0.19081 -0.01846 -172.27989 8.68181 0.38478 10.13245 2.76423 4.38308 -34.52806 -11.51879 -2.11994 -40.90847 -22.6097 7.84942 66.04635 83.91917 2.9597 -0.31244 -48.47165 7.5015 6.50777 73.26968 -85.06263 9.17017 1.83606 75.44068 -6.98793 -5.94854 -107.60121 -13.73346 -3.13736 -4.12719 73.25208 2.37394 1.08934 -101.54887 -10.6469 2.67524 3.73521
0.30168 -0.19072 -0.0186 -172.05329 8.27553 0.49551 10.03803 2.7272 4.60626 -34.11646 -11.9805 -2.11994 -40.29034 -22.71806 7.9771 65.65743 83.72256 2.95565 -0.77522 -47.77249 7.76003 6.12742 72.872 -84.86888 9.10269 1.84928 76.02331 -7.00028 -5.63372 -107.48942 -13.81386 -3.11415 -4.11947 73.85093 2.24874 1.23562 -101.92837 -10.66687 2.65189 3.72429
0.30139 -0.19064 -0.01875 -171.80204 7.86028 0.61607 9.95745 2.68614 4.83005 -33.68955 -12.46688 -2.11994 -39.69987 -22.80835 8.06965 65.28421 83.50309 2.93099 -1.31579 -47.08199 8.02864 5.73115 72.48399 -84.6493 9.02979 1.85993 76.65378 -7.01591 -5.2682 -107.38132 -13.93757 -3.09289 -4.1152 74.48231 2.11296 1.40728 -102.35636 -10.69081 2.63086 3.71478
0.30109 -0.19055 -0.01889 -171.60054 7.4575 0.72148 9.84653 2.64627 5.05439 -33.28529 -12.8861 -2.11994 -39.03191 -22.95062 8.2519 64.86755 83.31531 2.95831 -1.74977 -46.35585 8.29544 5.35642 72.07444 -84.48408 8.98079 1.87389 77.22372 -7.02921 -5.01098 -107.30628 -13.98619 -3.06754 -4.10458 75.04113 2.00257 1.54484 -102.6407 -10.70286 2.60663 3.70296
0.30077 -0.19042 -0.01901 -171.53876 7.09617 0.77812 9.65095 2.6155 5.28741 -32.95343 -13.1329 -2.11994 -38.15493 -23.22154 8.66376 64.32513 83.23335 3.13157 -1.82438 -45.54243 8.53743 5.05645 71.59831 -84.47247 8.98691 1.89991 77.58874 -7.03319 -5.05409 -107.27701 -13.80685 -3.02785 -4.07366 75.40511 1.95752 1.56258 -102.55987 -10.68448 2.57121 3.68363
0.30043 -0.19028 -0.01912 -171.52707 6.74817 0.81898 9.42594 2.58724 5.51908 -32.64667 -13.31467 -2.11994 -37.20731 -23.54269 9.16408 63.74425 83.18424 3.35161 -1.78609 -44.69731 8.77471 4.77862 71.10241 -84.51463 9.01439 1.92939 77.88564 -7.03428 -5.20458 -107.27549 -13.55114 -2.9847 -4.03668 75.69633 1.9384 1.54514 -102.34438 -10.65467 2.53258 3.66203
0.30009 -0.19014 -0.01923 -171.49191 6.39405 0.86835 9.21664 2.55908 5.74522 -32.33005 -13.52898 -2.11994 -36.30485 -23.84187 9.62519 63.19399 83.11689 3.54167 -1.8078 -43.87304 9.01345 4.4885 70.62237 -84.52958 9.03089 1.95666 78.21034 -7.036 -5.30253 -107.26292 -13.33417 -2.94548 -4.00396 76.01946 1.90964 1.55013 -102.20051 -10.63037 2.49612 3.6419
0.29981 -0.19001 -0.01938 -171.4596 6.03985 0.91333 8.99702 2.52494 5.9975 -32.0057 -13.72998 -2.11994 -35.34374 -24.14092 10.08439 62.58746 83.06094 3.77393 -1.80276 -43.02043 9.25713 4.20767 70.11418 -84.55683 9.05608 1.98627 78.5543 -7.04095 -5.41692 -107.24927 -13.10177 -2.89649 -3.96504 76.34612 1.87268 1.53186 -102.00514 -10.60388 2.45694 3.62002
0.29939 -0.18987 -0.01943 -171.43323 5.68856 0.96278 8.79216 2.50384 6.19504 -31.70342 -13.94205 -2.11994 -34.48935 -24.44958 10.56774 62.08829 82.99053 3.9242 -1.82089 -42.21824 9.48937 3.91147 69.65847 -84.5706 9.06577 2.01204 78.83991 -7.03855 -5.52224 -107.24289 -12.8832 -2.86674 -3.93745 76.64935 1.85811 1.55085 -101.88854 -10.57992 2.42249 3.60117
0.2986 -0.18975 -0.0192 -171.41206 5.34869 1.03384 8.63416 2.52181 6.23995 -31.46133 -14.21884 -2.11994 -33.94646 -24.7881 11.09598 61.90743 82.86605 3.87616 -1.95497 -41.58117 9.68146 3.58292 69.36588 -84.5391 9.04226 2.02524 78.97863 -7.01405 -5.57702 -107.24245 -12.71598 -2.89339 -3.94368 76.89691 1.90552 1.69769 -102.01423 -10.5614 2.40275 3.59153
0.29767 -0.18962 -0.01888 -171.39501 5.01009 1.10882 8.49214 2.55232 6.22982 -31.23962 -14.50605 -2.11994 -33.51342 -25.13147 11.64539 61.83386 82.7272 3.73697 -2.11105 -40.99251 9.86346 3.23494 69.12398 -84.49131 8.99941 2.03466 79.06073 -6.98269 -5.61867 -107.24852 -12.56595 -2.93901 -3.96128 77.125 1.97344 1.87998 -102.22575 -10.54666 2.38767 3.58492
0.29681 -0.18949 -0.01861 -171.37537 4.66684 1.17836 8.34375 2.57478 6.24637 -31.00559 -14.77673 -2.11994 -33.03167 -25.46192 12.18457 61.70336 82.59937 3.61255 -2.23946 -40.37081 10.0562 2.88658 68.85062 -84.44746 8.95537 2.04662 79.16927 -6.95592 -5.66585 -107.25597 -12.4115 -2.97443 -3.973 77.36795 2.02751 2.03483 -102.40504 -10.53314 2.3699 3.57673
0.29594 -0.18938 -0.0183 -171.36036 4.34166 1.26284 8.19115 2.60709 6.25698 -30.78623 -15.09445 -2.11994 -32.54472 -25.83887 12.72848 61.60618 82.45416 3.59979 -2.43694 -39.79647 10.22339 2.58001 68.61364 -84.41963 8.95407 2.05534 79.27188 -6.92258 -5.71894 -107.24756 -12.24047 -3.01664 -3.98765 77.58335 2.10108 2.23583 -102.55331 -10.50692 2.35454 3.56941
